<svg xmlns="http://www.w3.org/2000/svg" version="1.1" xmlns:xlink="http://www.w3.org/1999/xlink" xmlns:svgjs="http://svgjs.dev/svgjs" viewBox="0 0 800 800" opacity="1"><defs><linearGradient gradientTransform="rotate(270)" x1="50%" y1="0%" x2="50%" y2="100%" id="sssquiggly-grad"><stop stop-color="hsl(50, 98%, 60%)" stop-opacity="1" offset="0%"></stop><stop stop-color="hsl(50, 98%, 80%)" stop-opacity="1" offset="100%"></stop></linearGradient></defs><g stroke-width="9" stroke="url(#sssquiggly-grad)" fill="none" stroke-linecap="round" transform="matrix(1,0,0,1,0,-1100.015037536621)"><path d="M10,10C21.805555555555557,11.666666666666666,40.97222222222223,23.625,66.66666666666667,18C92.36111111111111,12.375,105.55555555555557,-16.791666666666668,133.33333333333334,-17C161.11111111111111,-17.208333333333332,172.22222222222223,16.791666666666668,200,17C227.77777777777777,17.208333333333332,238.8888888888889,-20.375,266.6666666666667,-16C294.44444444444446,-11.625,305.5555555555556,34.875,333.33333333333337,38C361.11111111111114,41.125,372.22222222222223,-1.625,400,-1C427.77777777777777,-0.375,438.8888888888889,39.75,466.6666666666667,41C494.44444444444446,42.25,505.5555555555556,5.416666666666667,533.3333333333334,5C561.1111111111111,4.583333333333333,572.2222222222222,39,600,39C627.7777777777778,39,638.8888888888889,5,666.6666666666667,5C694.4444444444446,5,707.6388888888889,37.958333333333336,733.3333333333334,39C759.0277777777778,40.041666666666664,778.1944444444445,16.041666666666664,790,10"></path><path d="M10,10C21.805555555555557,11.666666666666666,40.97222222222223,23.625,66.66666666666667,18C92.36111111111111,12.375,105.55555555555557,-16.791666666666668,133.33333333333334,-17C161.11111111111111,-17.208333333333332,172.22222222222223,16.791666666666668,200,17C227.77777777777777,17.208333333333332,238.8888888888889,-20.375,266.6666666666667,-16C294.44444444444446,-11.625,305.5555555555556,34.875,333.33333333333337,38C361.11111111111114,41.125,372.22222222222223,-1.625,400,-1C427.77777777777777,-0.375,438.8888888888889,39.75,466.6666666666667,41C494.44444444444446,42.25,505.5555555555556,5.416666666666667,533.3333333333334,5C561.1111111111111,4.583333333333333,572.2222222222222,39,600,39C627.7777777777778,39,638.8888888888889,5,666.6666666666667,5C694.4444444444446,5,707.6388888888889,37.958333333333336,733.3333333333334,39C759.0277777777778,40.041666666666664,778.1944444444445,16.041666666666664,790,10" transform="matrix(1,0,0,1,0,2976)"></path><path d="M10,10C21.805555555555557,11.666666666666666,40.97222222222223,23.625,66.66666666666667,18C92.36111111111111,12.375,105.55555555555557,-16.791666666666668,133.33333333333334,-17C161.11111111111111,-17.208333333333332,172.22222222222223,16.791666666666668,200,17C227.77777777777777,17.208333333333332,238.8888888888889,-20.375,266.6666666666667,-16C294.44444444444446,-11.625,305.5555555555556,34.875,333.33333333333337,38C361.11111111111114,41.125,372.22222222222223,-1.625,400,-1C427.77777777777777,-0.375,438.8888888888889,39.75,466.6666666666667,41C494.44444444444446,42.25,505.5555555555556,5.416666666666667,533.3333333333334,5C561.1111111111111,4.583333333333333,572.2222222222222,39,600,39C627.7777777777778,39,638.8888888888889,5,666.6666666666667,5C694.4444444444446,5,707.6388888888889,37.958333333333336,733.3333333333334,39C759.0277777777778,40.041666666666664,778.1944444444445,16.041666666666664,790,10" transform="matrix(1,0,0,1,0,2880)"></path><path d="M10,10C21.805555555555557,11.666666666666666,40.97222222222223,23.625,66.66666666666667,18C92.36111111111111,12.375,105.55555555555557,-16.791666666666668,133.33333333333334,-17C161.11111111111111,-17.208333333333332,172.22222222222223,16.791666666666668,200,17C227.77777777777777,17.208333333333332,238.8888888888889,-20.375,266.6666666666667,-16C294.44444444444446,-11.625,305.5555555555556,34.875,333.33333333333337,38C361.11111111111114,41.125,372.22222222222223,-1.625,400,-1C427.77777777777777,-0.375,438.8888888888889,39.75,466.6666666666667,41C494.44444444444446,42.25,505.5555555555556,5.416666666666667,533.3333333333334,5C561.1111111111111,4.583333333333333,572.2222222222222,39,600,39C627.7777777777778,39,638.8888888888889,5,666.6666666666667,5C694.4444444444446,5,707.6388888888889,37.958333333333336,733.3333333333334,39C759.0277777777778,40.041666666666664,778.1944444444445,16.041666666666664,790,10" transform="matrix(1,0,0,1,0,2784)"></path><path d="M10,10C21.805555555555557,11.666666666666666,40.97222222222223,23.625,66.66666666666667,18C92.36111111111111,12.375,105.55555555555557,-16.791666666666668,133.33333333333334,-17C161.11111111111111,-17.208333333333332,172.22222222222223,16.791666666666668,200,17C227.77777777777777,17.208333333333332,238.8888888888889,-20.375,266.6666666666667,-16C294.44444444444446,-11.625,305.5555555555556,34.875,333.33333333333337,38C361.11111111111114,41.125,372.22222222222223,-1.625,400,-1C427.77777777777777,-0.375,438.8888888888889,39.75,466.6666666666667,41C494.44444444444446,42.25,505.5555555555556,5.416666666666667,533.3333333333334,5C561.1111111111111,4.583333333333333,572.2222222222222,39,600,39C627.7777777777778,39,638.8888888888889,5,666.6666666666667,5C694.4444444444446,5,707.6388888888889,37.958333333333336,733.3333333333334,39C759.0277777777778,40.041666666666664,778.1944444444445,16.041666666666664,790,10" transform="matrix(1,0,0,1,0,2688)"></path><path d="M10,10C21.805555555555557,11.666666666666666,40.97222222222223,23.625,66.66666666666667,18C92.36111111111111,12.375,105.55555555555557,-16.791666666666668,133.33333333333334,-17C161.11111111111111,-17.208333333333332,172.22222222222223,16.791666666666668,200,17C227.77777777777777,17.208333333333332,238.8888888888889,-20.375,266.6666666666667,-16C294.44444444444446,-11.625,305.5555555555556,34.875,333.33333333333337,38C361.11111111111114,41.125,372.22222222222223,-1.625,400,-1C427.77777777777777,-0.375,438.8888888888889,39.75,466.6666666666667,41C494.44444444444446,42.25,505.5555555555556,5.416666666666667,533.3333333333334,5C561.1111111111111,4.583333333333333,572.2222222222222,39,600,39C627.7777777777778,39,638.8888888888889,5,666.6666666666667,5C694.4444444444446,5,707.6388888888889,37.958333333333336,733.3333333333334,39C759.0277777777778,40.041666666666664,778.1944444444445,16.041666666666664,790,10" transform="matrix(1,0,0,1,0,2592)"></path><path d="M10,10C21.805555555555557,11.666666666666666,40.97222222222223,23.625,66.66666666666667,18C92.36111111111111,12.375,105.55555555555557,-16.791666666666668,133.33333333333334,-17C161.11111111111111,-17.208333333333332,172.22222222222223,16.791666666666668,200,17C227.77777777777777,17.208333333333332,238.8888888888889,-20.375,266.6666666666667,-16C294.44444444444446,-11.625,305.5555555555556,34.875,333.33333333333337,38C361.11111111111114,41.125,372.22222222222223,-1.625,400,-1C427.77777777777777,-0.375,438.8888888888889,39.75,466.6666666666667,41C494.44444444444446,42.25,505.5555555555556,5.416666666666667,533.3333333333334,5C561.1111111111111,4.583333333333333,572.2222222222222,39,600,39C627.7777777777778,39,638.8888888888889,5,666.6666666666667,5C694.4444444444446,5,707.6388888888889,37.958333333333336,733.3333333333334,39C759.0277777777778,40.041666666666664,778.1944444444445,16.041666666666664,790,10" transform="matrix(1,0,0,1,0,2496)"></path><path d="M10,10C21.805555555555557,11.666666666666666,40.97222222222223,23.625,66.66666666666667,18C92.36111111111111,12.375,105.55555555555557,-16.791666666666668,133.33333333333334,-17C161.11111111111111,-17.208333333333332,172.22222222222223,16.791666666666668,200,17C227.77777777777777,17.208333333333332,238.8888888888889,-20.375,266.6666666666667,-16C294.44444444444446,-11.625,305.5555555555556,34.875,333.33333333333337,38C361.11111111111114,41.125,372.22222222222223,-1.625,400,-1C427.77777777777777,-0.375,438.8888888888889,39.75,466.6666666666667,41C494.44444444444446,42.25,505.5555555555556,5.416666666666667,533.3333333333334,5C561.1111111111111,4.583333333333333,572.2222222222222,39,600,39C627.7777777777778,39,638.8888888888889,5,666.6666666666667,5C694.4444444444446,5,707.6388888888889,37.958333333333336,733.3333333333334,39C759.0277777777778,40.041666666666664,778.1944444444445,16.041666666666664,790,10" transform="matrix(1,0,0,1,0,2400)"></path><path d="M10,10C21.805555555555557,11.666666666666666,40.97222222222223,23.625,66.66666666666667,18C92.36111111111111,12.375,105.55555555555557,-16.791666666666668,133.33333333333334,-17C161.11111111111111,-17.208333333333332,172.22222222222223,16.791666666666668,200,17C227.77777777777777,17.208333333333332,238.8888888888889,-20.375,266.6666666666667,-16C294.44444444444446,-11.625,305.5555555555556,34.875,333.33333333333337,38C361.11111111111114,41.125,372.22222222222223,-1.625,400,-1C427.77777777777777,-0.375,438.8888888888889,39.75,466.6666666666667,41C494.44444444444446,42.25,505.5555555555556,5.416666666666667,533.3333333333334,5C561.1111111111111,4.583333333333333,572.2222222222222,39,600,39C627.7777777777778,39,638.8888888888889,5,666.6666666666667,5C694.4444444444446,5,707.6388888888889,37.958333333333336,733.3333333333334,39C759.0277777777778,40.041666666666664,778.1944444444445,16.041666666666664,790,10" transform="matrix(1,0,0,1,0,2304)"></path><path d="M10,10C21.805555555555557,11.666666666666666,40.97222222222223,23.625,66.66666666666667,18C92.36111111111111,12.375,105.55555555555557,-16.791666666666668,133.33333333333334,-17C161.11111111111111,-17.208333333333332,172.22222222222223,16.791666666666668,200,17C227.77777777777777,17.208333333333332,238.8888888888889,-20.375,266.6666666666667,-16C294.44444444444446,-11.625,305.5555555555556,34.875,333.33333333333337,38C361.11111111111114,41.125,372.22222222222223,-1.625,400,-1C427.77777777777777,-0.375,438.8888888888889,39.75,466.6666666666667,41C494.44444444444446,42.25,505.5555555555556,5.416666666666667,533.3333333333334,5C561.1111111111111,4.583333333333333,572.2222222222222,39,600,39C627.7777777777778,39,638.8888888888889,5,666.6666666666667,5C694.4444444444446,5,707.6388888888889,37.958333333333336,733.3333333333334,39C759.0277777777778,40.041666666666664,778.1944444444445,16.041666666666664,790,10" transform="matrix(1,0,0,1,0,2208)"></path><path d="M10,10C21.805555555555557,11.666666666666666,40.97222222222223,23.625,66.66666666666667,18C92.36111111111111,12.375,105.55555555555557,-16.791666666666668,133.33333333333334,-17C161.11111111111111,-17.208333333333332,172.22222222222223,16.791666666666668,200,17C227.77777777777777,17.208333333333332,238.8888888888889,-20.375,266.6666666666667,-16C294.44444444444446,-11.625,305.5555555555556,34.875,333.33333333333337,38C361.11111111111114,41.125,372.22222222222223,-1.625,400,-1C427.77777777777777,-0.375,438.8888888888889,39.75,466.6666666666667,41C494.44444444444446,42.25,505.5555555555556,5.416666666666667,533.3333333333334,5C561.1111111111111,4.583333333333333,572.2222222222222,39,600,39C627.7777777777778,39,638.8888888888889,5,666.6666666666667,5C694.4444444444446,5,707.6388888888889,37.958333333333336,733.3333333333334,39C759.0277777777778,40.041666666666664,778.1944444444445,16.041666666666664,790,10" transform="matrix(1,0,0,1,0,2112)"></path><path d="M10,10C21.805555555555557,11.666666666666666,40.97222222222223,23.625,66.66666666666667,18C92.36111111111111,12.375,105.55555555555557,-16.791666666666668,133.33333333333334,-17C161.11111111111111,-17.208333333333332,172.22222222222223,16.791666666666668,200,17C227.77777777777777,17.208333333333332,238.8888888888889,-20.375,266.6666666666667,-16C294.44444444444446,-11.625,305.5555555555556,34.875,333.33333333333337,38C361.11111111111114,41.125,372.22222222222223,-1.625,400,-1C427.77777777777777,-0.375,438.8888888888889,39.75,466.6666666666667,41C494.44444444444446,42.25,505.5555555555556,5.416666666666667,533.3333333333334,5C561.1111111111111,4.583333333333333,572.2222222222222,39,600,39C627.7777777777778,39,638.8888888888889,5,666.6666666666667,5C694.4444444444446,5,707.6388888888889,37.958333333333336,733.3333333333334,39C759.0277777777778,40.041666666666664,778.1944444444445,16.041666666666664,790,10" transform="matrix(1,0,0,1,0,2016)"></path><path d="M10,10C21.805555555555557,11.666666666666666,40.97222222222223,23.625,66.66666666666667,18C92.36111111111111,12.375,105.55555555555557,-16.791666666666668,133.33333333333334,-17C161.11111111111111,-17.208333333333332,172.22222222222223,16.791666666666668,200,17C227.77777777777777,17.208333333333332,238.8888888888889,-20.375,266.6666666666667,-16C294.44444444444446,-11.625,305.5555555555556,34.875,333.33333333333337,38C361.11111111111114,41.125,372.22222222222223,-1.625,400,-1C427.77777777777777,-0.375,438.8888888888889,39.75,466.6666666666667,41C494.44444444444446,42.25,505.5555555555556,5.416666666666667,533.3333333333334,5C561.1111111111111,4.583333333333333,572.2222222222222,39,600,39C627.7777777777778,39,638.8888888888889,5,666.6666666666667,5C694.4444444444446,5,707.6388888888889,37.958333333333336,733.3333333333334,39C759.0277777777778,40.041666666666664,778.1944444444445,16.041666666666664,790,10" transform="matrix(1,0,0,1,0,1920)"></path><path d="M10,10C21.805555555555557,11.666666666666666,40.97222222222223,23.625,66.66666666666667,18C92.36111111111111,12.375,105.55555555555557,-16.791666666666668,133.33333333333334,-17C161.11111111111111,-17.208333333333332,172.22222222222223,16.791666666666668,200,17C227.77777777777777,17.208333333333332,238.8888888888889,-20.375,266.6666666666667,-16C294.44444444444446,-11.625,305.5555555555556,34.875,333.33333333333337,38C361.11111111111114,41.125,372.22222222222223,-1.625,400,-1C427.77777777777777,-0.375,438.8888888888889,39.75,466.6666666666667,41C494.44444444444446,42.25,505.5555555555556,5.416666666666667,533.3333333333334,5C561.1111111111111,4.583333333333333,572.2222222222222,39,600,39C627.7777777777778,39,638.8888888888889,5,666.6666666666667,5C694.4444444444446,5,707.6388888888889,37.958333333333336,733.3333333333334,39C759.0277777777778,40.041666666666664,778.1944444444445,16.041666666666664,790,10" transform="matrix(1,0,0,1,0,1824)"></path><path d="M10,10C21.805555555555557,11.666666666666666,40.97222222222223,23.625,66.66666666666667,18C92.36111111111111,12.375,105.55555555555557,-16.791666666666668,133.33333333333334,-17C161.11111111111111,-17.208333333333332,172.22222222222223,16.791666666666668,200,17C227.77777777777777,17.208333333333332,238.8888888888889,-20.375,266.6666666666667,-16C294.44444444444446,-11.625,305.5555555555556,34.875,333.33333333333337,38C361.11111111111114,41.125,372.22222222222223,-1.625,400,-1C427.77777777777777,-0.375,438.8888888888889,39.75,466.6666666666667,41C494.44444444444446,42.25,505.5555555555556,5.416666666666667,533.3333333333334,5C561.1111111111111,4.583333333333333,572.2222222222222,39,600,39C627.7777777777778,39,638.8888888888889,5,666.6666666666667,5C694.4444444444446,5,707.6388888888889,37.958333333333336,733.3333333333334,39C759.0277777777778,40.041666666666664,778.1944444444445,16.041666666666664,790,10" transform="matrix(1,0,0,1,0,1728)"></path><path d="M10,10C21.805555555555557,11.666666666666666,40.97222222222223,23.625,66.66666666666667,18C92.36111111111111,12.375,105.55555555555557,-16.791666666666668,133.33333333333334,-17C161.11111111111111,-17.208333333333332,172.22222222222223,16.791666666666668,200,17C227.77777777777777,17.208333333333332,238.8888888888889,-20.375,266.6666666666667,-16C294.44444444444446,-11.625,305.5555555555556,34.875,333.33333333333337,38C361.11111111111114,41.125,372.22222222222223,-1.625,400,-1C427.77777777777777,-0.375,438.8888888888889,39.75,466.6666666666667,41C494.44444444444446,42.25,505.5555555555556,5.416666666666667,533.3333333333334,5C561.1111111111111,4.583333333333333,572.2222222222222,39,600,39C627.7777777777778,39,638.8888888888889,5,666.6666666666667,5C694.4444444444446,5,707.6388888888889,37.958333333333336,733.3333333333334,39C759.0277777777778,40.041666666666664,778.1944444444445,16.041666666666664,790,10" transform="matrix(1,0,0,1,0,1632)"></path><path d="M10,10C21.805555555555557,11.666666666666666,40.97222222222223,23.625,66.66666666666667,18C92.36111111111111,12.375,105.55555555555557,-16.791666666666668,133.33333333333334,-17C161.11111111111111,-17.208333333333332,172.22222222222223,16.791666666666668,200,17C227.77777777777777,17.208333333333332,238.8888888888889,-20.375,266.6666666666667,-16C294.44444444444446,-11.625,305.5555555555556,34.875,333.33333333333337,38C361.11111111111114,41.125,372.22222222222223,-1.625,400,-1C427.77777777777777,-0.375,438.8888888888889,39.75,466.6666666666667,41C494.44444444444446,42.25,505.5555555555556,5.416666666666667,533.3333333333334,5C561.1111111111111,4.583333333333333,572.2222222222222,39,600,39C627.7777777777778,39,638.8888888888889,5,666.6666666666667,5C694.4444444444446,5,707.6388888888889,37.958333333333336,733.3333333333334,39C759.0277777777778,40.041666666666664,778.1944444444445,16.041666666666664,790,10" transform="matrix(1,0,0,1,0,1536)"></path><path d="M10,10C21.805555555555557,11.666666666666666,40.97222222222223,23.625,66.66666666666667,18C92.36111111111111,12.375,105.55555555555557,-16.791666666666668,133.33333333333334,-17C161.11111111111111,-17.208333333333332,172.22222222222223,16.791666666666668,200,17C227.77777777777777,17.208333333333332,238.8888888888889,-20.375,266.6666666666667,-16C294.44444444444446,-11.625,305.5555555555556,34.875,333.33333333333337,38C361.11111111111114,41.125,372.22222222222223,-1.625,400,-1C427.77777777777777,-0.375,438.8888888888889,39.75,466.6666666666667,41C494.44444444444446,42.25,505.5555555555556,5.416666666666667,533.3333333333334,5C561.1111111111111,4.583333333333333,572.2222222222222,39,600,39C627.7777777777778,39,638.8888888888889,5,666.6666666666667,5C694.4444444444446,5,707.6388888888889,37.958333333333336,733.3333333333334,39C759.0277777777778,40.041666666666664,778.1944444444445,16.041666666666664,790,10" transform="matrix(1,0,0,1,0,1440)"></path><path d="M10,10C21.805555555555557,11.666666666666666,40.97222222222223,23.625,66.66666666666667,18C92.36111111111111,12.375,105.55555555555557,-16.791666666666668,133.33333333333334,-17C161.11111111111111,-17.208333333333332,172.22222222222223,16.791666666666668,200,17C227.77777777777777,17.208333333333332,238.8888888888889,-20.375,266.6666666666667,-16C294.44444444444446,-11.625,305.5555555555556,34.875,333.33333333333337,38C361.11111111111114,41.125,372.22222222222223,-1.625,400,-1C427.77777777777777,-0.375,438.8888888888889,39.75,466.6666666666667,41C494.44444444444446,42.25,505.5555555555556,5.416666666666667,533.3333333333334,5C561.1111111111111,4.583333333333333,572.2222222222222,39,600,39C627.7777777777778,39,638.8888888888889,5,666.6666666666667,5C694.4444444444446,5,707.6388888888889,37.958333333333336,733.3333333333334,39C759.0277777777778,40.041666666666664,778.1944444444445,16.041666666666664,790,10" transform="matrix(1,0,0,1,0,1344)"></path><path d="M10,10C21.805555555555557,11.666666666666666,40.97222222222223,23.625,66.66666666666667,18C92.36111111111111,12.375,105.55555555555557,-16.791666666666668,133.33333333333334,-17C161.11111111111111,-17.208333333333332,172.22222222222223,16.791666666666668,200,17C227.77777777777777,17.208333333333332,238.8888888888889,-20.375,266.6666666666667,-16C294.44444444444446,-11.625,305.5555555555556,34.875,333.33333333333337,38C361.11111111111114,41.125,372.22222222222223,-1.625,400,-1C427.77777777777777,-0.375,438.8888888888889,39.75,466.6666666666667,41C494.44444444444446,42.25,505.5555555555556,5.416666666666667,533.3333333333334,5C561.1111111111111,4.583333333333333,572.2222222222222,39,600,39C627.7777777777778,39,638.8888888888889,5,666.6666666666667,5C694.4444444444446,5,707.6388888888889,37.958333333333336,733.3333333333334,39C759.0277777777778,40.041666666666664,778.1944444444445,16.041666666666664,790,10" transform="matrix(1,0,0,1,0,1248)"></path><path d="M10,10C21.805555555555557,11.666666666666666,40.97222222222223,23.625,66.66666666666667,18C92.36111111111111,12.375,105.55555555555557,-16.791666666666668,133.33333333333334,-17C161.11111111111111,-17.208333333333332,172.22222222222223,16.791666666666668,200,17C227.77777777777777,17.208333333333332,238.8888888888889,-20.375,266.6666666666667,-16C294.44444444444446,-11.625,305.5555555555556,34.875,333.33333333333337,38C361.11111111111114,41.125,372.22222222222223,-1.625,400,-1C427.77777777777777,-0.375,438.8888888888889,39.75,466.6666666666667,41C494.44444444444446,42.25,505.5555555555556,5.416666666666667,533.3333333333334,5C561.1111111111111,4.583333333333333,572.2222222222222,39,600,39C627.7777777777778,39,638.8888888888889,5,666.6666666666667,5C694.4444444444446,5,707.6388888888889,37.958333333333336,733.3333333333334,39C759.0277777777778,40.041666666666664,778.1944444444445,16.041666666666664,790,10" transform="matrix(1,0,0,1,0,1152)"></path><path d="M10,10C21.805555555555557,11.666666666666666,40.97222222222223,23.625,66.66666666666667,18C92.36111111111111,12.375,105.55555555555557,-16.791666666666668,133.33333333333334,-17C161.11111111111111,-17.208333333333332,172.22222222222223,16.791666666666668,200,17C227.77777777777777,17.208333333333332,238.8888888888889,-20.375,266.6666666666667,-16C294.44444444444446,-11.625,305.5555555555556,34.875,333.33333333333337,38C361.11111111111114,41.125,372.22222222222223,-1.625,400,-1C427.77777777777777,-0.375,438.8888888888889,39.75,466.6666666666667,41C494.44444444444446,42.25,505.5555555555556,5.416666666666667,533.3333333333334,5C561.1111111111111,4.583333333333333,572.2222222222222,39,600,39C627.7777777777778,39,638.8888888888889,5,666.6666666666667,5C694.4444444444446,5,707.6388888888889,37.958333333333336,733.3333333333334,39C759.0277777777778,40.041666666666664,778.1944444444445,16.041666666666664,790,10" transform="matrix(1,0,0,1,0,1056)"></path><path d="M10,10C21.805555555555557,11.666666666666666,40.97222222222223,23.625,66.66666666666667,18C92.36111111111111,12.375,105.55555555555557,-16.791666666666668,133.33333333333334,-17C161.11111111111111,-17.208333333333332,172.22222222222223,16.791666666666668,200,17C227.77777777777777,17.208333333333332,238.8888888888889,-20.375,266.6666666666667,-16C294.44444444444446,-11.625,305.5555555555556,34.875,333.33333333333337,38C361.11111111111114,41.125,372.22222222222223,-1.625,400,-1C427.77777777777777,-0.375,438.8888888888889,39.75,466.6666666666667,41C494.44444444444446,42.25,505.5555555555556,5.416666666666667,533.3333333333334,5C561.1111111111111,4.583333333333333,572.2222222222222,39,600,39C627.7777777777778,39,638.8888888888889,5,666.6666666666667,5C694.4444444444446,5,707.6388888888889,37.958333333333336,733.3333333333334,39C759.0277777777778,40.041666666666664,778.1944444444445,16.041666666666664,790,10" transform="matrix(1,0,0,1,0,960)"></path><path d="M10,10C21.805555555555557,11.666666666666666,40.97222222222223,23.625,66.66666666666667,18C92.36111111111111,12.375,105.55555555555557,-16.791666666666668,133.33333333333334,-17C161.11111111111111,-17.208333333333332,172.22222222222223,16.791666666666668,200,17C227.77777777777777,17.208333333333332,238.8888888888889,-20.375,266.6666666666667,-16C294.44444444444446,-11.625,305.5555555555556,34.875,333.33333333333337,38C361.11111111111114,41.125,372.22222222222223,-1.625,400,-1C427.77777777777777,-0.375,438.8888888888889,39.75,466.6666666666667,41C494.44444444444446,42.25,505.5555555555556,5.416666666666667,533.3333333333334,5C561.1111111111111,4.583333333333333,572.2222222222222,39,600,39C627.7777777777778,39,638.8888888888889,5,666.6666666666667,5C694.4444444444446,5,707.6388888888889,37.958333333333336,733.3333333333334,39C759.0277777777778,40.041666666666664,778.1944444444445,16.041666666666664,790,10" transform="matrix(1,0,0,1,0,864)"></path><path d="M10,10C21.805555555555557,11.666666666666666,40.97222222222223,23.625,66.66666666666667,18C92.36111111111111,12.375,105.55555555555557,-16.791666666666668,133.33333333333334,-17C161.11111111111111,-17.208333333333332,172.22222222222223,16.791666666666668,200,17C227.77777777777777,17.208333333333332,238.8888888888889,-20.375,266.6666666666667,-16C294.44444444444446,-11.625,305.5555555555556,34.875,333.33333333333337,38C361.11111111111114,41.125,372.22222222222223,-1.625,400,-1C427.77777777777777,-0.375,438.8888888888889,39.75,466.6666666666667,41C494.44444444444446,42.25,505.5555555555556,5.416666666666667,533.3333333333334,5C561.1111111111111,4.583333333333333,572.2222222222222,39,600,39C627.7777777777778,39,638.8888888888889,5,666.6666666666667,5C694.4444444444446,5,707.6388888888889,37.958333333333336,733.3333333333334,39C759.0277777777778,40.041666666666664,778.1944444444445,16.041666666666664,790,10" transform="matrix(1,0,0,1,0,768)"></path><path d="M10,10C21.805555555555557,11.666666666666666,40.97222222222223,23.625,66.66666666666667,18C92.36111111111111,12.375,105.55555555555557,-16.791666666666668,133.33333333333334,-17C161.11111111111111,-17.208333333333332,172.22222222222223,16.791666666666668,200,17C227.77777777777777,17.208333333333332,238.8888888888889,-20.375,266.6666666666667,-16C294.44444444444446,-11.625,305.5555555555556,34.875,333.33333333333337,38C361.11111111111114,41.125,372.22222222222223,-1.625,400,-1C427.77777777777777,-0.375,438.8888888888889,39.75,466.6666666666667,41C494.44444444444446,42.25,505.5555555555556,5.416666666666667,533.3333333333334,5C561.1111111111111,4.583333333333333,572.2222222222222,39,600,39C627.7777777777778,39,638.8888888888889,5,666.6666666666667,5C694.4444444444446,5,707.6388888888889,37.958333333333336,733.3333333333334,39C759.0277777777778,40.041666666666664,778.1944444444445,16.041666666666664,790,10" transform="matrix(1,0,0,1,0,672)"></path><path d="M10,10C21.805555555555557,11.666666666666666,40.97222222222223,23.625,66.66666666666667,18C92.36111111111111,12.375,105.55555555555557,-16.791666666666668,133.33333333333334,-17C161.11111111111111,-17.208333333333332,172.22222222222223,16.791666666666668,200,17C227.77777777777777,17.208333333333332,238.8888888888889,-20.375,266.6666666666667,-16C294.44444444444446,-11.625,305.5555555555556,34.875,333.33333333333337,38C361.11111111111114,41.125,372.22222222222223,-1.625,400,-1C427.77777777777777,-0.375,438.8888888888889,39.75,466.6666666666667,41C494.44444444444446,42.25,505.5555555555556,5.416666666666667,533.3333333333334,5C561.1111111111111,4.583333333333333,572.2222222222222,39,600,39C627.7777777777778,39,638.8888888888889,5,666.6666666666667,5C694.4444444444446,5,707.6388888888889,37.958333333333336,733.3333333333334,39C759.0277777777778,40.041666666666664,778.1944444444445,16.041666666666664,790,10" transform="matrix(1,0,0,1,0,576)"></path><path d="M10,10C21.805555555555557,11.666666666666666,40.97222222222223,23.625,66.66666666666667,18C92.36111111111111,12.375,105.55555555555557,-16.791666666666668,133.33333333333334,-17C161.11111111111111,-17.208333333333332,172.22222222222223,16.791666666666668,200,17C227.77777777777777,17.208333333333332,238.8888888888889,-20.375,266.6666666666667,-16C294.44444444444446,-11.625,305.5555555555556,34.875,333.33333333333337,38C361.11111111111114,41.125,372.22222222222223,-1.625,400,-1C427.77777777777777,-0.375,438.8888888888889,39.75,466.6666666666667,41C494.44444444444446,42.25,505.5555555555556,5.416666666666667,533.3333333333334,5C561.1111111111111,4.583333333333333,572.2222222222222,39,600,39C627.7777777777778,39,638.8888888888889,5,666.6666666666667,5C694.4444444444446,5,707.6388888888889,37.958333333333336,733.3333333333334,39C759.0277777777778,40.041666666666664,778.1944444444445,16.041666666666664,790,10" transform="matrix(1,0,0,1,0,480)"></path><path d="M10,10C21.805555555555557,11.666666666666666,40.97222222222223,23.625,66.66666666666667,18C92.36111111111111,12.375,105.55555555555557,-16.791666666666668,133.33333333333334,-17C161.11111111111111,-17.208333333333332,172.22222222222223,16.791666666666668,200,17C227.77777777777777,17.208333333333332,238.8888888888889,-20.375,266.6666666666667,-16C294.44444444444446,-11.625,305.5555555555556,34.875,333.33333333333337,38C361.11111111111114,41.125,372.22222222222223,-1.625,400,-1C427.77777777777777,-0.375,438.8888888888889,39.75,466.6666666666667,41C494.44444444444446,42.25,505.5555555555556,5.416666666666667,533.3333333333334,5C561.1111111111111,4.583333333333333,572.2222222222222,39,600,39C627.7777777777778,39,638.8888888888889,5,666.6666666666667,5C694.4444444444446,5,707.6388888888889,37.958333333333336,733.3333333333334,39C759.0277777777778,40.041666666666664,778.1944444444445,16.041666666666664,790,10" transform="matrix(1,0,0,1,0,384)"></path><path d="M10,10C21.805555555555557,11.666666666666666,40.97222222222223,23.625,66.66666666666667,18C92.36111111111111,12.375,105.55555555555557,-16.791666666666668,133.33333333333334,-17C161.11111111111111,-17.208333333333332,172.22222222222223,16.791666666666668,200,17C227.77777777777777,17.208333333333332,238.8888888888889,-20.375,266.6666666666667,-16C294.44444444444446,-11.625,305.5555555555556,34.875,333.33333333333337,38C361.11111111111114,41.125,372.22222222222223,-1.625,400,-1C427.77777777777777,-0.375,438.8888888888889,39.75,466.6666666666667,41C494.44444444444446,42.25,505.5555555555556,5.416666666666667,533.3333333333334,5C561.1111111111111,4.583333333333333,572.2222222222222,39,600,39C627.7777777777778,39,638.8888888888889,5,666.6666666666667,5C694.4444444444446,5,707.6388888888889,37.958333333333336,733.3333333333334,39C759.0277777777778,40.041666666666664,778.1944444444445,16.041666666666664,790,10" transform="matrix(1,0,0,1,0,288)"></path><path d="M10,10C21.805555555555557,11.666666666666666,40.97222222222223,23.625,66.66666666666667,18C92.36111111111111,12.375,105.55555555555557,-16.791666666666668,133.33333333333334,-17C161.11111111111111,-17.208333333333332,172.22222222222223,16.791666666666668,200,17C227.77777777777777,17.208333333333332,238.8888888888889,-20.375,266.6666666666667,-16C294.44444444444446,-11.625,305.5555555555556,34.875,333.33333333333337,38C361.11111111111114,41.125,372.22222222222223,-1.625,400,-1C427.77777777777777,-0.375,438.8888888888889,39.75,466.6666666666667,41C494.44444444444446,42.25,505.5555555555556,5.416666666666667,533.3333333333334,5C561.1111111111111,4.583333333333333,572.2222222222222,39,600,39C627.7777777777778,39,638.8888888888889,5,666.6666666666667,5C694.4444444444446,5,707.6388888888889,37.958333333333336,733.3333333333334,39C759.0277777777778,40.041666666666664,778.1944444444445,16.041666666666664,790,10" transform="matrix(1,0,0,1,0,192)"></path><path d="M10,10C21.805555555555557,11.666666666666666,40.97222222222223,23.625,66.66666666666667,18C92.36111111111111,12.375,105.55555555555557,-16.791666666666668,133.33333333333334,-17C161.11111111111111,-17.208333333333332,172.22222222222223,16.791666666666668,200,17C227.77777777777777,17.208333333333332,238.8888888888889,-20.375,266.6666666666667,-16C294.44444444444446,-11.625,305.5555555555556,34.875,333.33333333333337,38C361.11111111111114,41.125,372.22222222222223,-1.625,400,-1C427.77777777777777,-0.375,438.8888888888889,39.75,466.6666666666667,41C494.44444444444446,42.25,505.5555555555556,5.416666666666667,533.3333333333334,5C561.1111111111111,4.583333333333333,572.2222222222222,39,600,39C627.7777777777778,39,638.8888888888889,5,666.6666666666667,5C694.4444444444446,5,707.6388888888889,37.958333333333336,733.3333333333334,39C759.0277777777778,40.041666666666664,778.1944444444445,16.041666666666664,790,10" transform="matrix(1,0,0,1,0,96)"></path></g></svg>